/* XPM */
static char *_4319e8c647d4cececfec822bc9b21ebEP52OxYLlNcgMTer[] = {
/* columns rows colors chars-per-pixel */
"36 36 15 1 ",
"  c #2F2F2F",
". c #543F21",
"X c #183048",
"o c #802F2F",
"O c #D10000",
"+ c #F80000",
"@ c #588933",
"# c #71C247",
"$ c #B99B6D",
"% c #8ED84D",
"& c #A5E362",
"* c #406880",
"= c #70B8D0",
"- c #E2E2E2",
"; c white",
/* pixels */
"-------- --- ----- --- --- ---------",
"------- # - # - - # - # - # ---- ---",
"-- --  ### ##  # ###  ## ##  -- # --",
"- #  ######### ##### ########  # ---",
"-- #############################  --",
"--- ########%##################### -",
"-- ########%%###########@##@##### --",
"- ####%####%%##%#######@@##@@#### --",
"-- ###%%###%##.o$o$o###@#@##@#### --",
"-  ####%#%%%#*..o$o$=##@#@@####### -",
" #####%%%%&&X*....oo=*###@#@#####@ -",
"- ##%#%%&%&&X***=;;==*##@##@###### -",
"- ##%%%&&&%%&XXXXXXXX############# -",
"- ###%%&&%#%*========*##%####%#### -",
"- ###%%%%%#*=%%###====*#%###%%#### -",
"- ###%#%%**=%#####=;;;=**###%####@ -",
"- #####%X==ooOO+++=;;;=o=*######## -",
"- ###@##*=ooOO++;;=;;;=Oo=*######@@ ",
"- @#@@##*=*OOOO++++===OOo=*%##%##@@ ",
"- ##@###*=oOO+OOOOOOOO+Oo=*&%#%%##@ ",
"- ####@#*=oOOOOOOO+OOOOOo=*&%###### ",
"- @#####*==*oOO+OOOO+OOo=**%%#####@ ",
"- @@##%#*=;=*oOOOOOO+Oo==*X%####### ",
"-- @##%#X*;;=*ooOOOOOo==*X%##%###@# ",
"-- @###%%X**==**oooo===*X###%%##@@# ",
"-- ###%%&&XX****====**XX%#%#%###@## ",
"-- #@#%&&%%#XXXXXXXXXX@###########@ ",
"-- #@##%%%#%##########@@#######@##@ ",
"-- ############@#######@#@##@####@@ ",
"-- @#@###@@##@#@##@##@###@###@##@@ -",
"-- @@@#@##@#@@@@@#@#@@#@@###@@@@@@ -",
"-- @@@@@@@@@@#@@@@@@@@@@@@@@@@@@@ --",
"--- @@@@@@@@@@@@@@@#@@@@@@#@@@@@ ---",
"---- @@@@@@@@@@ @@@@@@@@@@@@    ----",
"-----   @@@@@  -  @@@@      --------",
"--------     -----    --------------"
};
