/* XPM */
static char *_9979293408b4230ae6c4435c1928054hstKpUoLc2ZsTuR5[] = {
/* columns rows colors chars-per-pixel */
"36 36 218 2 ",
"   c None",
".  c #0B1618",
"X  c #021216",
"o  c #141B1B",
"O  c #2B1B15",
"+  c #22211F",
"@  c #29261F",
"#  c #37261C",
"$  c #1C2536",
"%  c #113336",
"&  c #252220",
"*  c #222A2D",
"=  c #312A21",
"-  c #252C32",
";  c #283533",
":  c #2E3B39",
">  c #283837",
",  c #353C34",
"<  c #461D27",
"1  c #641F2F",
"2  c #462B26",
"3  c #443928",
"4  c #4E3228",
"5  c #503223",
"6  c #52332D",
"7  c #633C2C",
"8  c #6C3428",
"9  c #712C2E",
"0  c #464436",
"q  c #4A412F",
"w  c #704035",
"e  c #775D3E",
"r  c #1C2B45",
"t  c #212A43",
"y  c #37484D",
"u  c #365C5F",
"i  c #3E5B6C",
"p  c #39696D",
"a  c #57544B",
"s  c #4F4F4A",
"d  c #6D654C",
"f  c #4A5571",
"g  c #4D5F77",
"h  c #445A6F",
"j  c #4D6E7E",
"k  c #4A637A",
"l  c #54657A",
"z  c #59697C",
"x  c #546379",
"c  c #4B717D",
"v  c #587A7F",
"b  c #55757B",
"n  c #4E6F6D",
"m  c #952536",
"M  c #B1293E",
"N  c #9E552A",
"B  c #894D3C",
"V  c #AC512B",
"C  c #8C673A",
"Z  c #A3733D",
"A  c #B17A3F",
"S  c #CA592D",
"D  c #E25E2F",
"F  c #DC763E",
"G  c #C36539",
"H  c #F56936",
"J  c #F56B39",
"K  c #FD773B",
"L  c #B93143",
"P  c #DF3A4C",
"I  c #E43B4E",
"U  c #EE3C51",
"Y  c #F83B52",
"T  c #F0354D",
"R  c #965340",
"E  c #9A5541",
"W  c #885758",
"Q  c #8E6549",
"!  c #946B4B",
"~  c #996F4D",
"^  c #986E42",
"/  c #90655E",
"(  c #AC6444",
")  c #A46B48",
"_  c #A36546",
"`  c #B26A47",
"'  c #B76F49",
"]  c #A4754D",
"[  c #AD754A",
"{  c #B8704A",
"}  c #B37D4D",
"|  c #B97F4B",
" . c #AD7C50",
".. c #A37B56",
"X. c #B37E51",
"o. c #967667",
"O. c #9B7A68",
"+. c #987867",
"@. c #D47745",
"#. c #EE7F45",
"$. c #E77746",
"%. c #F07F45",
"&. c #E96E6C",
"*. c #9E8556",
"=. c #BE834F",
"-. c #B88252",
";. c #B2835A",
":. c #AB8351",
">. c #A38E65",
",. c #B88C64",
"<. c #A29571",
"1. c #B99B74",
"2. c #AE926B",
"3. c #B2A57F",
"4. c #928767",
"5. c #CB824D",
"6. c #DE8A4D",
"7. c #C38953",
"8. c #CB8C54",
"9. c #C28754",
"0. c #D58B53",
"q. c #C6915E",
"w. c #D49356",
"e. c #DC9555",
"r. c #DC9857",
"t. c #E78649",
"y. c #F18045",
"u. c #F9864A",
"i. c #E8924D",
"p. c #E29653",
"a. c #E19A55",
"s. c #E39C59",
"d. c #EF9B59",
"f. c #EE9957",
"g. c #F29B52",
"h. c #F19C5A",
"j. c #FB9F55",
"k. c #F9944A",
"l. c #E8A159",
"z. c #F3A55C",
"x. c #FEAB5A",
"c. c #FCA757",
"v. c #FFB459",
"b. c #FFB95B",
"n. c #C29E74",
"m. c #CA9F72",
"M. c #CD9B67",
"N. c #FD9E62",
"B. c #CAA476",
"V. c #D0A576",
"C. c #D5A97B",
"Z. c #D4A872",
"A. c #E9A866",
"S. c #F8AB64",
"D. c #FEB265",
"F. c #FFBB64",
"G. c #FBB56C",
"H. c #FDB96D",
"J. c #E6B47B",
"K. c #FBBB74",
"L. c #F7BA78",
"P. c #F1AD72",
"I. c #FFC174",
"U. c #FEC37C",
"Y. c #F7C27F",
"T. c #406B81",
"R. c #5E6D83",
"E. c #447786",
"W. c #467B89",
"Q. c #497886",
"!. c #5E7581",
"~. c #5B7C82",
"^. c #557585",
"/. c #627682",
"(. c #637A84",
"). c #56858B",
"_. c #558B8B",
"`. c #5C8E8C",
"'. c #558388",
"]. c #5E908D",
"[. c #588F91",
"{. c #6D8B8C",
"}. c #60858B",
"|. c #69928F",
" X c #638992",
".X c #699592",
"XX c #739594",
"oX c #759992",
"OX c #789E95",
"+X c #7A9E9A",
"@X c #708F8D",
"#X c #7EA49B",
"$X c #79A39B",
"%X c #DBB988",
"&X c #EDB683",
"*X c #E4BA85",
"=X c #EDB986",
"-X c #E8B585",
";X c #ECB783",
":X c #DFC698",
">X c #E0C08D",
",X c #F5C385",
"<X c #F3C88D",
"1X c #FAC685",
"2X c #FFD18A",
"3X c #EDCC97",
"4X c #F1CB92",
"5X c #FDCF91",
"6X c #EED29F",
"7X c #F3D39B",
"8X c #FDD597",
"9X c #ECD4A3",
"0X c #EBD8A8",
"qX c #F2D5A2",
"wX c #F4D8A3",
"eX c #F8DBA6",
"rX c #FEE1AC",
"tX c #FFF3B8",
/* pixels */
"oX#Xy * ; > > ; > ; ; ; ; ; ; ; ; ; ; ; ; ; ; ; ; ; > ; ; ; ; > * y #XoX",
"oX$XR.XX#X#X#X#X#X#X#X#X#X#X#X#X#X#X#X#X#X#X#X#X#X#X$X$X#X#X#X#XoXz OXOX",
"}.~.f l z l z z z z z z z b z z z z z z z z z z z z z z z l z z x x  X`.",
"oXv j ~.{.{.@Xv v v ~.k h ~.v v v v v v ~.v v v v b c v v {.{.{.@X!.v oX",
"OX/.Q.`.oXOXn 5 5 5 5 5 5 5 5 5 5 5 5 5 5 5 5 5 5 5 5 5 5 n #XoXOX(.v OX",
"OX/.j `.oX#X: D H H H H J H H H J J H H H H H H J H H H D ; #XoX$X(./.OX",
"OX/.f k ].~.* p.=X&X=XP.S.=X=X%XA.k.d.J.=X&X&X-Xz.P.&X=XZ.> .X`.].^.!.OX",
"OX/.!.XX.XoX: J.7X0X4XL.6XrX3.0 q q q , 4.U.H.H.H.U.7X7X*X: $X|.oX(.!.OX",
"OX/.j _.).[.> A.,X<XL.3X7X1.e 7XU.1XU.2XC ^ 6X9X<XL.,X<XA.: $XoXOX(.!.OX",
"OX/.c _._.[.> J.0XG.<X9X2X, J.F.,XH.<XD.2X, 9X,Xx.,X4XK.A.: #XoXOX(.!.OX",
"OX/.f k k l - *X,XL.9X5XC m &.K.L.P.=XH.&.L d 1Xx.<XL.4XJ.- ^.].`.b /.OX",
"OXv (.oXXX+X: *Xx.,X9XF...9 T U I I I I Y m d eXG.K.3X4XA.: .X.X`.(.!.OX",
"OX/.(.OXoX+X: 0.k.<X,XG.rX*.1 m Y U Y L 1 C K.9XH.3XG.k.F : #XoX|.(./.OX",
"OX/.(.oXoX+X; 6.c.G.x.G.0XS.V w < < < 8 N K H.0XG.D.x.c.t.: OXoXOX(.!.OX",
"OX/.f x g l * y.b.u.$.u.1XK.u.u.F F @.t.u.D.eXU.y.$.u.I.y.* l g x f (.OX",
"OX/.j _.).`.y Z N V.tX*XV Z 2.<.:.[ 2.<.:.>.>.N *XtXV.N Z y `.)._.j /.OX",
"OX/.c _.)._.x t r s d a r r r - r r t - t t t r a d s r r R.).)._.c /.OX",
"$X!.c _._._.'.Q.R.}.n ^.XX@XXXXXR.^.).).).).).).k p h ^. XW._.)._.b (.OX",
"$Xb k '.E.E.W.T.g  X X X(. X`. XT.T.W.E.E.E.E.E.W.W.k p W.E.E.W.W.k b $X",
"u % $ W W / +.O.O.+.+.o.+.o.o.o.o.o.o.o.o.o.o.O.+.O.+.+.+.o./ W W $ % u ",
"O V # S K x.v.6.h.g.t.h.i.b.v.v.x.v.v.v.v.v.b.6.g.6.g.g.6.v.c.K S # V O ",
"2 u.8 G x.Y.4X;.m.m.,.V.,.7X4X4X4X4X4X3X4X4X7X,.V.,.m.B.;.3XY.x.G 8 u.2 ",
"3 F.%.c.I.0XwXC.%X%XC.>X%XwXwXwXwXwXwXwXwXwXeX%X>XC.%X%XC.qX0XI.c.%.F.3 ",
"3 b.%.5.q.B.1.1.B.B.B.1.C.V.V.V.V.V.V.V.V.V.V.C.1.B.B.1.B.n.n.q.5.#.F.3 ",
"3 F.%.6.s.a.p.a.s.p.p.0.7 & = = = = = = = = & 7 0.a.a.p.a.p.p.a.e.%.D.3 ",
"3 F.%.[ 8.r.] =.l.] -.h.6 X . . . . o . . . X 4 z.-.] s.9.] r.8.[ %.F.3 ",
"3 F.%.) 7.w.Q M.r.~  .d.6 . o o o o o o o o . 4 h. .~ s.-.~ w.7.) %.F.3 ",
"3 F.%.) 7.0.1.8Xe.~  .d.6 . o o o o o o o o . 6 f. .~ a.-.~ w.7.) %.F.3 ",
"3 F.%.[ 8.K.7X5Xp.] } d.6 . o o o o o o o o . 6 d.} ] s.9.] r.8.' #.F.3 ",
"3 F.#.p.z.z.l.l.D.G.G.d.6 . o o o o o o o o . 6 d.G.H.D.l.s.z.z.p.%.F.3 ",
"3 F.y.) =.w.!  .K.0XwXd.6 . o o o o o o o o . 6 h.wX:XA.:.! w.=.^ %.F.3 ",
"3 F.y.) 7.w.! } K.qXB.d.6 . o o o o o o o o . 6 h.4X..e.-.~ w.7.) y.F.3 ",
"3 F.#.) 7.w.~ X.K.1.] h.6 X & & & & & & & & X 6 d.;.~ a.{ 2.U.9.) #.F.3 ",
"3 F.' Q =.w.! :.s.Q ] d.4 & R E E E E E E R & 2 h.] ! r.V.0X1X| Q ' F.3 ",
"3 F.' 7.z.z.r.s.x.r.s.d.w B E R R R R R R E B w d.l.w.z.K.U.H.l.5.' F.3 ",
"3 F.' ( ( ` ` ` ( ` ` _ E                     E _ ` ` ` ( Z ( ` ( ' F.3 "
};
