/* XPM */
static char *_4c2c4e53d914ca6e0084783de0e01b5EbNvydC4jf71ryxW[] = {
/* columns rows colors chars-per-pixel */
"36 36 6 1 ",
"  c #2F2F2F",
". c #588933",
"X c #71C247",
"o c #8ED84D",
"O c #A5E362",
"+ c #E2E2E2",
/* pixels */
"++++++++ +++ +++++ +++ +++ +++++++++",
"+++++++ X + X + + X + X + X ++++ +++",
"++ ++  XXX XX  X XXX  XX XX  ++ X ++",
"+ X  XXXXXXXXX XXXXX XXXXXXXX  X +++",
"++ XXXXXXXXXXXXXXXXXXXXXXXXXXXXX  ++",
"+++ XXXXXXXXoXXXXXXXXXXXXXXXXXXXXX +",
"++ XXXXXXXXooXXXXXXXXXXX.XX.XXXXX ++",
"+ XXXXoXXXXooXXoXXXXXXX..XX..XXXX ++",
"++ XXXooXXXoXXooXXXXXXX.X.XX.XXXX ++",
"+  XXXXoXoooXXoXXoXXXXX.X..XXXXXXX +",
" XXXXXooooOOooXXXXXXoXXXX.X.XXXXX. +",
"+ XXoXooOoOOOOoXXoXooXXX.XX.XXXXXX +",
"+ XXoooOOOooOOooXoXoXXXXXXXXXXXXXX +",
"+ XXXooOOoXoOOooXXXXXXXXoXXXXoXXXX +",
"+ XXXoooooXooooXXXXXXXXXoXXXooXXXX +",
"+ XXXoXooooXoXXXXXoXoXXXXXXXoXXXX. +",
"+ XXXXXoXooXXXXXXXoXXXoXXXXXXXXXXX +",
"+ XXX.XXXXXXXXoXXXXoXooooXoXXXXXX.. ",
"+ .X..XXXXXoXXXoXXooooOOoXooXXoXX.. ",
"+ XX.XXXXXXooXXoXooOoOOOoooOoXooXX. ",
"+ XXXX.XXXXXoXXXXooOOoOOOOOOoXXXXXX ",
"+ .XXXXXXXXXXXXXXooOooOOoOOooXXXXX. ",
"+ ..XXoXXXXXXoXoXXooXoooooooXXXXXXX ",
"++ .XXoXXoXXXXXoXXooXXoooXoXXoXXX.X ",
"++ .XXXoooXoXXXXXXXooXoXoXXXooXX..X ",
"++ XXXooOOooXXXXXXoXXXoXoXoXoXXX.XX ",
"++ X.XoOOooXXXXXXXXXXX.XXXXXXXXXXX. ",
"++ X.XXoooXoXXXXXXXXXX..XXXXXXX.XX. ",
"++ XXXXXXXXXXXX.XXXXXXX.X.XX.XXXX.. ",
"++ .X.XXX..XX.X.XX.XX.XXX.XXX.XX.. +",
"++ ...X.XX.X.....X.X..X..XXX...... +",
"++ ..........X................... ++",
"+++ ...............X......X..... +++",
"++++ .......... ............    ++++",
"+++++   .....  +  ....      ++++++++",
"++++++++     +++++    ++++++++++++++"
};
