/* XPM */
static char *_6e0f3632971423fbfd48951b741d1b6TnfZUxJRIb7Qt3xg[] = {
/* columns rows colors chars-per-pixel */
"36 36 6 1 ",
"  c #2F2F2F",
". c #588933",
"X c #71C247",
"o c #8ED84D",
"O c #A5E362",
"+ c #E2E2E2",
/* pixels */
"+++++++++++++++++++ ++ ++++++ ++++++",
"+++++ +++ + ++ + + X  X ++++ X +++++",
"++++ X + X X  X X XX  XX  + X ++++++",
"++++ XX XXXX XX XXXXX XXXX XX  +++++",
"++++ XXXXXXXXXXXXXXXXXXoXXXXX X ++++",
"++++ XXXXXXXXXXXoXXXXXXooXXXXXX ++++",
"+++ XXXXXXXXXXXooXXXXXXXoXXXXXXX +++",
"++ XXXXXXXXXXXXoXXoooooXXXXXXXXX +++",
"++ XX.XXXXXXXXXXXoooOooooXXXXX.XX ++",
"++ XX.XXXoXXXXXooOoOOOoOooXoXX.XX ++",
"++ XXXXXooXXoXXoXOOOOOOOooXooXXXX ++",
"++ XXXXXoXXXoXXooOOoOOOOOOoXXXXXXX +",
"+ XXXXXXXXXXXoXooOooXoOOOOoXXXXX.X +",
" XXXXXoXXXoXXoXXoooXXoOoOoXXXXXX.X +",
" XXX.XooXooOoXXXXXXXoooooooXoXXXXX +",
" XX..XXoooOOoooXXoXXXXooXoXXooXXXX +",
" .X.XXooOoOooOooXoXXXXXXXXXXXoX.XX +",
" XXXXXoOOooooOoooOOXoXXXXXoXXXXXXX +",
" XXXXXOOooOoOOOOOoOooooooXoXXXoXXX +",
" X.XXXOooOOOOOOOOOOOOOoOoXXXXXooXX +",
" ...XXooOOOOOOOoOOOOOooOooXXoXXoXXX ",
" .XXXXoooOOOOOOooOOOOoXoooXXoXXXXXX ",
"+ X.XXoXoooOOooXooooOoXXoXXXoXXXX.X ",
"+ X.XXXXoXoooooXXoXooooXXXXXXXX.X.X ",
"+ XXXXoXooooXXXXXXXXXoXXXXXXXXXXXXX ",
"+ XXXXXXXXoXXXXXXXXoXXXoXXXXX.XXXX. ",
"+ XX.XXXoXXXXXXX.XXoXXXoX.XXX..X... ",
"+ XXX.XXoXXXXXX..X.XXXXXX.XXXX.XX.. ",
"+ .XX.X.XXXX.XX.XX.XX.XXXXXX.XXXX. +",
"+ ..XXX..X.X.X.XX..X..XX.XXX.XXX.. +",
"+ ....XX.........X.........X..X.. ++",
"++ .........X....XX......X....... ++",
"++ .............................. ++",
"+++ .................... ....... +++",
"++++  .....   .... .... + ..... ++++",
"++++++     +++    +    +++     +++++"
};
