/* XPM */
static char *_10053dd01194f1db8c78f47e5dc4145Pcni8ey79iukXgaW[] = {
/* columns rows colors chars-per-pixel */
"36 36 9 1 ",
"  c #2F2F2F",
". c #621C0E",
"X c #762010",
"o c #952915",
"O c #B76921",
"+ c #DE7D27",
"@ c #BF9727",
"# c #F0C135",
"$ c #E2E2E2",
/* pixels */
"$$$$$      $$$$    $$$$$$$$$$$$$$$$$",
"$$$  XooooX $$ XooX $$$       $$$$$$",
"$$ XoooooooX  XooooX $ XXooooX $$$$$",
"$ XoooooooooX.oooooo  XoooooooX $$$$",
"$ oooooooooooXoooooo.+XooooooooX $$$",
" XoooooooooooooooooX+#oooooooooo $$$",
" oooooooooooo#Xoooo++XooooooooooX $$",
" oooooooooooX++#ooX#+oooooooooooX $$",
" oooooooooooX++XoooX+oooooooooooX $$",
" ooooooooooo+#Xooooo#XXooooooooX. $$",
" ooooooooooX++oooooX.#++XoooooX.  $$",
" oooooooooo+#Xooooo.ooX+#XooX#.XX $$",
" XooooooooX+#XooooXoooooX+#X+XoooX $",
" .XooooooX#+++XX..oooooooX++#ooooX $",
" .....XooooXX+#.Xooooooooo#+Xooooo $",
" ......oooooo###ooooooooooX#oooooo $",
" ...++...ooooX+Xooooooooooo+oooooo $",
"$ .+#+#o++Xooo#XoooooooooooX+XoooX $",
"$  XoooX.#+XX+#ooooooooooooX##oXX. $",
"$ Xooooooo#++#XoooooooooooX#+XooX  $",
" XoooooooooX+#XooooooooooX++XooooX $",
" Xooooooooooo+#XXXooooooo+#oooooooX ",
" ooooooooooooo++##XXooooX+.oooooooX ",
" ooooooooooooo+ooo#+#XXX+#.oooooooo ",
" ooooooooooooo#ooooXX++#+.Xoooooooo ",
" oooooooooooo+XoooooooX++XooooooooX ",
" Xooooooooooo#oooooooooX#ooooooooo. ",
" Xoooooooooo+#ooooooooooXooooooooX. ",
" .Xooooooooo#+ooooooooooooooooooX.. ",
" ..XoooooooX+.XoooooooooXoooooXX.. $",
" ...XooooX..@..XoooooooX.XXXX..... $",
" .....XXX..O@....XXXXX........... $$",
"$ .........O@................... $$$",
"$$ ........OO .......... ....   $$$$",
"$$$  ......@ $ ........ $    $$$$$$$",
"$$$$$       $$$        $$$$$$$$$$$$$"
};
