/* XPM */
static char *_d061e51fa6d433eee547fab65649fbbBfAb8ZRL83IbHCmo[] = {
/* columns rows colors chars-per-pixel */
"36 36 12 1 ",
"  c #5B443E",
". c #3F4658",
"X c #664C43",
"o c #75584A",
"O c #7C4B59",
"+ c #866550",
"@ c #967356",
"# c #9A5962",
"$ c #AF5F63",
"% c #A2805C",
"& c #C38877",
"* c #E49C85",
/* pixels */
"%%@@@@@@@@@@@@++++++++@@@@%%%%%%%%@@",
"@@@@@@@@@@@@@@%%%%@@@@%%%%@@@@%%%%%%",
"@@@@@@@@@@@@@@%%%%@@@@%%%%@@@@%%%%%%",
"@@@@@@@@@@@@@@%%%%@@@@%%%%@@@@%%%%%%",
"@@@@@@@@@@@@@@%%%%@@@@%%%%@@@@%%%%%%",
"@@%%%%@@@@@@@@%%%%oooo%%%%oooo@@@@%%",
"@@%%%%@@@@@@@@%%%%oooo%%%%oooo@@@@%%",
"@@%%%%@@@@@@@@%%%%oooo%%%%oooo@@@@%%",
"@@%%%%@@@@@@@@%%%%oooo%%%%oooo@@@@%%",
"%%%%%%oooo%%%%%%%%oooooooooooooooo@@",
"%%%%%%oooo%%%%%%%%oooooooooooooooo@@",
"%%%%%%oooo%%%%%%%%oooooooooooooooo@@",
"%%%%%%oooo%%%%%%%%oooooooooooooooo@@",
"@@oooo****oooooooooooo************@@",
"@@oooo****oooooooooooo************@@",
"@@oooo****oooooooooooo************@@",
"@@oooo****oooooooooooo************@@",
"@@****....****************....****@@",
"@@****....****************....****@@",
"@@****....****************....****@@",
"@@****....****************....****@@",
"@@****....****************....****@@",
"@@****....****************....****@@",
"@@****....****************....****@@",
"@@****....****************....****@@",
"@@********************************@@",
"@@********************************@@",
"@@********************************@@",
"@@********************************@@",
"XX        &&&&&&&&&&&&&&&&        XX",
"XX        &&&&&&&&&&&&&&&&        XX",
"XX        &&&&&&&&&&&&&&&&        XX",
"XX        &&&&&&&&&&&&&&&&        XX",
"OO####$$$$$$$$$$$$$$$$$$$$$$$$####OO",
"OO####$$$$$$$$$$$$$$$$$$$$$$$$####OO",
"OO####$$$$$$$$$$$$$$$$$$$$$$$$####OO"
};
