/* XPM */
static char *_230307a5b614570b1bc2af0b70434a6MPQWo7vHaQFUzaFd[] = {
/* columns rows colors chars-per-pixel */
"36 36 5 1 ",
"  c #2F2F2F",
". c #646464",
"X c #898989",
"o c #989898",
"O c #E2E2E2",
/* pixels */
" XXoooooooooooXX   O  XXooooooooXX  ",
"XooooooooooooooooXX XooooooooooooooX",
"ooooooooooooooooooX oooooooooXXooooo",
"ooooooooooooooooooo ooooooooXXXXoooo",
"Xoooooooooooooooooo ooooooooXXXXoooo",
".oooooooooooooooooo oooooooooXXooooo",
".oooooooooooooooooo oooooooooooooooo",
".oooooooooooooooooo Xooooooooooooooo",
" oooooooooooooooooo Xooooooooooooooo",
" oooooooooooooooooo .Xoooooooooooooo",
"XoooooooooooooooooX ..XXoooooooooooX",
"ooooooooooooooooooX ........XXooooXX",
"oooooooooooooooooX. ................",
"Xoooooooooooooooo..  ...............",
".XooooooooooooooX..XooX....XXoooooX ",
"....XXooooooooXX...oooooooooooooooo ",
"..................XooooooooooooooooX",
" ..XXooooooooooXX oooooooooooooooooo",
"XXooooooooooooooX oooooooooooooooooX",
"XooooooooooXXooooXXoooooooooooooooo.",
"ooooooooooXXXXoooo.oooooooooooooooo.",
"ooXXXXXoooXXXXXooo.oooooooooooooooo.",
"XXXXXXXXoooXXXXooo.oooooooooooooooo ",
"XXXXXXXXXoooXXoooo oooooooooooooooo ",
".XXXXXXXXXoooooooo Xooooooooooooooo ",
".XXXXXXXXXoooooooo ......Xooooooooo ",
".XXXXXXXXXXooooooo .XoooX.oooooooooX",
" XXXXXXXXXXooooooo Xooooo..ooooooooX",
" XXXXXXXXXXooooooo oooooooX.oooooooo",
"XXXXXXXXXXXooooooX oooooooo.oooooooo",
"XXXXXXXXXXoooooooX XooooooX.oooooooX",
".XXXXXXXXXoooooXX. .........XoooooX.",
".................. ........ ........",
".................. ........ ........",
".................. .......  ........",
" ................ O       O ....... "
};
