/* XPM */
static char *cea7702310f74781d6e97e384abc424cT26a4GU8LUnay3Vf[] = {
/* columns rows colors chars-per-pixel */
"36 36 10 1 ",
"  c #2F2F2F",
". c #4E5567",
"X c #66688C",
"o c #3895E0",
"O c #3B9DEB",
"+ c #40A8FA",
"@ c #97A2AD",
"# c #CDCFD4",
"$ c #C3E4EF",
"% c #E2E2E2",
/* pixels */
"%%%%                            %%%%",
"%%% ############################ %%%",
"%% #@@@@@@@@@@###@@@#@X@@@@@@@@@X %%",
"% #@@@@@@@@@@@@###@@@#@X@@@@@@@@@X %",
" #@@@X........................X@@@X ",
" #@@X..........................X@@@ ",
" #@@..$$$$$$$$$$$$$$$$$$$$$$$$..@@@ ",
" #@@.$$++++++++++++++++++++++$$.@@@ ",
" #@@$$++++++++++++++++++++++++$$@@@ ",
" @@@$++OOooooooooooooooooooOO++$@@@ ",
" #@@$+OoooooooooX@XooooooooooO+$@@@ ",
" @@@$oooo++++oo$@@@$ooooooooooo$X@@ ",
" #@@$oooo++++oo$X@X$ooX#@Xooooo$XX@ ",
" @@@$oooo++++oo$...$o$@@#@$oooo$@XX ",
" @@@$ooooOOOOoo$$$$$o$@@@#$oooo$@@X ",
" @@@$ooooooooooo+++oo$X##X$oooo$#@@ ",
" #@@$ooX@@@XooooO+Ooo$....$oooo$@@@ ",
" @#@$o$##@@@Ooooooooo$$$$$$oooo$@@@ ",
" @@#$o$@##@@@@Xooooooo++++ooooo$#@@ ",
" X@@$o$@@##@@@#$ooooooO++Oooooo$@@@ ",
" @X@$o$@@@##@@#$ooo++oooooooooo$#@@ ",
" @@X$o$X######X$ooo++oooooooooo$#@@ ",
" @@@$o$........$ooo++o++ooooooo$#@@ ",
" @@@$o$$$$$$$$$$ooooooOOooooooo$#@@ ",
" @@@#Oo++++++++oooooooooooooooO#@@@ ",
" X@@@#OO++++++OooooooooooooooO#@@@X ",
" @X@@@########################@@@X@ ",
" @.X@@@@@@X@@@@@@@#@@@@XX@@@@@@@X.@ ",
" @..X@@@@@@X@@@@@@@#@@@@XX@@@@@X..@ ",
" X................................X ",
"% X..............................X %",
"%% X............................X %%",
"%%  @X......................@.@X  %%",
"%% X............................X %%",
"%%% XXXX@@@@@X@XXX@XXXXXXXXXXXXX %%%",
"%%%%                            %%%%"
};
