/* XPM */
static char *_c6426a31d7148c788752cb86beeec67CctnygdEaqTfYBxs[] = {
/* columns rows colors chars-per-pixel */
"50 50 237 2 ",
"   c #750A01",
".  c #743503",
"X  c #6C3302",
"o  c #135B05",
"O  c #394E00",
"+  c #066C02",
"@  c #1A6C00",
"#  c #0F7904",
"$  c #316E01",
"%  c #347A03",
"&  c #595302",
"*  c #4E4719",
"=  c #4C4B1E",
"-  c #524B1C",
";  c #5A4914",
":  c #4A5102",
">  c #67460C",
",  c #744C02",
"<  c #6B520E",
"1  c #745508",
"2  c #634D12",
"3  c #694910",
"4  c #655115",
"5  c #6C5313",
"6  c #65551A",
"7  c #6C5A1A",
"8  c #715714",
"9  c #745A14",
"0  c #795E15",
"q  c #775E1B",
"w  c #497104",
"e  c #577505",
"r  c #586E0C",
"t  c #6D671F",
"y  c #7D6115",
"u  c #7B641B",
"i  c #786819",
"p  c #677A00",
"a  c #525627",
"s  c #6B5E25",
"d  c #566130",
"f  c #596632",
"g  c #5C6934",
"h  c #5F652C",
"j  c #6C6324",
"k  c #686528",
"l  c #756924",
"z  c #756B27",
"x  c #77712C",
"c  c #636F37",
"v  c #647239",
"b  c #69783B",
"n  c #717331",
"m  c #767A36",
"M  c #7A7D38",
"N  c #7E6D38",
"B  c #8C0400",
"V  c #940201",
"C  c #971804",
"Z  c #A20000",
"A  c #AF0502",
"S  c #B50303",
"D  c #BB130F",
"F  c #8D2906",
"G  c #962701",
"H  c #983900",
"J  c #912D0F",
"K  c #AA2A02",
"L  c #B22802",
"P  c #AE3908",
"I  c #C40000",
"U  c #CE0000",
"Y  c #D90000",
"T  c #CC0D13",
"R  c #C91815",
"E  c #DE1316",
"W  c #EC0100",
"Q  c #EA0E04",
"!  c #F60100",
"~  c #FF0503",
"^  c #F40809",
"/  c #F21012",
"(  c #CC2B02",
")  c #D5291B",
"_  c #D43200",
"`  c #E93800",
"'  c #F71926",
"]  c #FE2E39",
"[  c #FF3032",
"{  c #EF3536",
"}  c #884B06",
"|  c #914B01",
" . c #825A00",
".. c #825D0D",
"X. c #975700",
"o. c #885D13",
"O. c #914E13",
"+. c #A34701",
"@. c #A25400",
"#. c #A7590A",
"$. c #B75407",
"%. c #B7520E",
"&. c #8B6A0E",
"*. c #896307",
"=. c #956C0B",
"-. c #996905",
";. c #98760A",
":. c #836515",
">. c #866914",
",. c #8B6B14",
"<. c #8C6C19",
"1. c #886518",
"2. c #926E16",
"3. c #906F18",
"4. c #996516",
"5. c #947214",
"6. c #9A7414",
"7. c #9E7913",
"8. c #94731A",
"9. c #997619",
"0. c #9E7A1A",
"q. c #957D17",
"w. c #897610",
"e. c #BB6E05",
"r. c #A77808",
"t. c #B37400",
"y. c #B27A05",
"u. c #A37C14",
"i. c #AF7C15",
"p. c #A27D1A",
"a. c #A7751A",
"s. c #B77B12",
"d. c #AE6509",
"f. c #A44122",
"g. c #897520",
"h. c #967724",
"j. c #8A762A",
"k. c #C45700",
"l. c #D54E01",
"z. c #EE4100",
"x. c #FF5C00",
"c. c #E25900",
"v. c #CB660A",
"b. c #D86C04",
"n. c #CD7408",
"m. c #E56606",
"M. c #FB7806",
"N. c #EA720E",
"B. c #D54334",
"V. c #D27830",
"C. c #E47A36",
"Z. c #E47929",
"A. c #BF5E4A",
"S. c #C34342",
"D. c #FF4E59",
"F. c #F44244",
"G. c #FC6973",
"H. c #FD6268",
"J. c #478706",
"K. c #5A8712",
"L. c #54880C",
"P. c #638706",
"I. c #76813D",
"U. c #7A843C",
"Y. c #6B9424",
"T. c #738441",
"R. c #7A8B45",
"E. c #7A8843",
"W. c #7F9047",
"Q. c #888704",
"!. c #988918",
"~. c #8E8B12",
"^. c #AA810E",
"/. c #AC8515",
"(. c #A6811B",
"). c #AB851B",
"_. c #A88717",
"`. c #B48B16",
"'. c #B48B1C",
"]. c #BB8D1D",
"[. c #B5861F",
"{. c #AD9319",
"}. c #BD951E",
"|. c #BB8F06",
" X c #8BA307",
".X c #988029",
"XX c #A78526",
"oX c #B08A2A",
"OX c #A49B28",
"+X c #BD9329",
"@X c #B99635",
"#X c #A19531",
"$X c #97A136",
"%X c #B7A330",
"&X c #CA8703",
"*X c #D48D00",
"=X c #C38417",
"-X c #CD9A10",
";X c #FA890B",
":X c #E99B03",
">X c #FF8014",
",X c #F69800",
"<X c #E5A805",
"1X c #FAAA08",
"2X c #FFB90B",
"3X c #FDB71B",
"4X c #EDA81D",
"5X c #C59635",
"6X c #ED8D2D",
"7X c #C9A43C",
"8X c #D1AA3F",
"9X c #FDBB2E",
"0X c #FCBA38",
"qX c #F0AF36",
"wX c #F8C83F",
"eX c #809147",
"rX c #809248",
"tX c #88964F",
"yX c #8A9C54",
"uX c #BC9843",
"iX c #8EA056",
"pX c #BCA743",
"aX c #FF9C47",
"sX c #FF965E",
"dX c #C8AF42",
"fX c #F8B846",
"gX c #FEAE59",
"hX c #EAB551",
"jX c #F8B366",
"kX c #FDB171",
"lX c #C8944C",
"zX c #FCC859",
"xX c #FFD54D",
"cX c #FFD472",
"vX c #FFD361",
"bX c #E68181",
"nX c #FFDD86",
/* pixels */
"T.rXrXrXiXrXiXyXW.rXW.W.W.T.W.R.R.W.W.W.W.R.W.R.W.iXW.iXW.W.W.W.T.rXrXrXyXrXyXyXrXrXR.R.rXT.rXT.R.rX",
"rXR.R.rXyXrXyXrXW.W.W.W.W.R.W.W.W.R.W.iXW.W.W.W.R.R.W.W.W.R.W.R.rXR.R.rXyXrXyXrXrXrXrXrXrXR.rXrXrXR.",
"rXrXT.rXrXR.rXR.W.W.rXrXiXW.W.W.W.W.tXiXiXW.W.iXW.W.W.W.W.W.T.R.rXrXT.rXrXW.rXR.rXR.rXrXiXrXrXR.rXrX",
"rXrXrXR.rXrXR.rXW.W.W.W.iXW.iXW.W.W.W.W.iXR.iXW.W.W.W.W.W.W.W.W.rXrXrXR.rXrXR.rXrXrXR.rXyXrXiXrXR.rX",
"iXrXrXrXR.rXrXT.W.T.W.W.rXR.R.rXW.T.W.W.W.W.W.W.W.W.W.iXW.W.W.W.yXrXrXrXR.rXrXT.rXE.W.W.rXR.R.rXrXT.",
"yXrXrXR.T.rXrXrXR.I.W.W.R.rXrXR.W.W.W.W.W.W.W.T.W.W.W.W.iXiXW.iXyXrXrXW.T.rXrXrXR.T.rXrXR.rXrXR.rXrX",
"R.R.rXrXrXR.rXR.rXrXrXrXrXrXR.rXiXW.W.W.W.W.W.W.W.W.R.R.W.iXW.iXR.R.rXrXrXR.rXW.W.rXrXrXrXrXR.rXiXrX",
"R.rXrXR.rXrXrXrXyXrXrXiXrXiXrXR.iXiXW.W.iXyXW.W.W.W.W.R.W.W.W.W.R.rXrXR.rXrXrXrXyXrXrXyXrXiXrXR.yXiX",
"T.rXrXiXrXR.rXiXR.rXrXyXiXrXrXR.W.iXW.iXR.R.rXiXW.W.rXrXrXrXR.rXT.W.rXiXrXR.rXiXR.rXrXyXiXrXrXR.rXyX",
"T.R.rXrXiXrXiXyXrXrXR.rXyXR.R.R.W.W.R.W.rXT.rXrXiXiXrXrXiXrXrXrXT.R.rXrXiXrXyXyXrXrXR.rXyXR.R.R.rXrX",
"rXrXR.rXyXrXyXrXR.rXrXrXR.rXW.I.R.I.U..Xy y >.<.j.<.>.>.:.0 x U.I.U.E.W.yXrXyXrXR.rXrXrXR.rXrXT.rXrX",
"R.rXrXR.R.rXrXrXrXR.rXR.R.R.I.U.i i g.g.9.;.).].oXXX].[.!.q.i i q 6 m M T.rXrXrXrXR.rXR.R.rXR.rXrXiX",
"rXrXrXrXrXR.rXR.rXrXR.W.E.x i 8.a.i.i.6.1.:.>.3.9.8.g.7.s.r.% K.oX6.u q z I.eXE.rXrXR.rXrXiXrXrXR.R.",
"rXiXrXR.R.rXrXrXR.R.W.m l h.{.!.~.s.n.%.} 3 5 9 y -.$ e m.v.w r i.~.!.!.y s M eXR.R.rXR.rXrXyXrXiXrX",
"rXrXR.rXW.R.R.R.R.eXM u 2.5XOXL.e V.6XZ.+.. < y >.=XL.w v.Z.v.@.} | #.e J.g.t n R.rXrXR.rXR.rXrXrXT.",
"R.rXT.rXiXrXR.rXrXU.y 9.`.oXt : d.jXgXN.m.| X o.-XhX7X{.y.a.N.l.P R D : % i.2.7 n yXrXrXR.rXT.rXR.T.",
"R.R.rXR.yXiXrXiXtXl ,.[.0.9 ; } c.aX#Xw.M.$.X X.2XvXwX2X*X, e | E D.] R C L y.y s E.rXR.rXrXrXrXW.W.",
"R.rXT.rXrXyXrXiXl >.u.i.0 X.-. .1 ( & @ K k.H ,  XwX3X:Xt.+.@ O ) H.] ~ Y V r.q.7 j rXR.rXiXiXrXW.W.",
"rXrXR.rXrXR.rXrX9 i.~.% o _.9X6XQ { A.f.A B G & + o.:X,XN.sXlXa.$.P Q ! S   o.^.&.2 T.rXR.rXyXiXW.iX",
"rXrXrXR.R.rXrXT.8 +XOXe Q.hXxX<X| bXD.! W ( Z.lX.X#.X.b.:X$X6X;Xk.X V F 1 O.o.(.u.2 T.R.rXR.rXyXW.iX",
"rXrXiXrXrXR.R.rX9 7X@Xy &XzXfXr.+ N F.' ~ x.gXkXM.M.} F L # , l.b.e.H O # o.0 '.'.2 R.rXrXR.R.R.R.W.",
"iXR.R.rXrXrXrXR.9 @X+X..*.4XqX@XY.w.d.) ! c.gXkXM.M._ R S.j C V %.fXqX~.p =.8.`.7.2 yXyXrXrXrXR.W.W.",
"rXrXrXR.R.rXR.T.5 7.+X.X5 t.fXnX9X1X^.H U L %.C.aXM._ B.G.] ^ Z J cXxX1Xn.;.].`.&.2 rXyXiXrXiXrXW.W.",
"rXR.T.R.rXrXR.T.2 0 oX7Xh.-.5XzX1X<XQ.. T T V J C.m.J.r [ ~ W Z F 9X1X&X=.8.'.(.0 2 rXrXyXiXrXrXW.W.",
"R.rXrXrXrXrXrXR.6 5 &./.8X.X=.t.&XP.@ 3 D.F.E Z F n.K.w X.Q I B H &Xy.2.9.'.8.>.a d W.W.R.W.W.R.W.W.",
"R.rXrXiXrXR.rXR.W.j 8 8.u.-X).0 5 |.z.' G./ W ` 3XcXzX3X*X .  H r.9 y @X7X<.:.9 = T.R.W.R.R.W.W.W.W.",
"rXrXiXyXrXrXrXrXiXj 2 8 >.u.`.}.'.6.:.O.D A I _ <XqX9X,X&X .8 :.q.^.7X@X<.y 5 5 = c W.iXW.R.W.W.W.W.",
"iXrXyXrXrXR.R.rXrXj < 0 y y ,.6.^.'.}./.4.o.4.3.g.9.;.2.5.6.;./.+X=X(.1.9 2 5 9 = c W.iXW.W.W.iXW.W.",
"yXrXR.rXT.rXrXR.rXl 9 9 y y y y :.8.(.`.{.{.%XpX@X).).).(.^.^.u.a.<.0 8 6 3 5 8 = d tXeXW.R.W.W.iXW.",
"rXrXrXR.rXrXrXR.rXl 9 9 y &.5.9.>.:.y &.2.(.XXoXXX(.(.(.9.,.,.:.9 9 0 8 5 5 3 5 * d eXT.W.W.W.W.iXW.",
"rXR.rXrXrXT.rXrXrXx 9 9 9 &.7.(.(.p.,.y 9 9 < > 5 8 4 2 5 5 9 9 9 0 q 8 5 4 5 q = v eXtXW.W.W.W.W.W.",
"T.R.rXyXrXrXrXiXyXl 9 8 y :.,.0.).).(.0.8.9 2 5 0 y 2 ; 2 9 y 9 9 9 8 5 4 5 3 8 = d eXT.W.R.W.W.W.W.",
"T.rXrXrXiXrXiXyXrXx 9 9 0 &.5.0.p.p.p.9.8.5.6.<.>.1.:.u :.0 9 8 9 9 9 5 5 5 5 5 - f W.R.W.T.W.T.R.W.",
"rXR.R.rXyXrXyXrXW.M 7 5 9 &.7.(.0.0.p.0.6.&.>.>.1.>.y 9 0 u 0 8 8 8 9 8 5 5 2 2 a f rXrXW.R.rXrXW.W.",
"rXrXT.rXrXR.rXR.rXR.x 5 9 :.,.8.(.(.0.8.<.=.;.&.y y :.:.:.8 5 9 0 0 8 5 4 5 q = f a rXrXiXW.rXW.W.W.",
"rXrXrXR.rXrXR.rXrXrXI.j 9 y >.,.5.3.6.7.5.&.:.:.<.<.0 5 9 >.y 8 5 5 0 8 8 0 - d c v R.rXiXW.iXW.R.W.",
"iXrXrXrXR.rXrXT.W.T.W.U.x 7 y :.:.o.:.&.,.=.;.,.y y :.:.q 0 9 8 5 8 8 y 7 - a f b b W.rXW.R.R.rXW.R.",
"yXrXrXR.T.rXrXrXR.T.W.rXE.n 7 9 8 0 y y :.,.=.,.:.>.:.y q 9 5 5 5 8 8 ; = g v T.R.T.W.rXR.W.rXR.W.W.",
"R.R.rXrXrXR.rXR.rXrXrXrXrXW.n 6 7 5 9 y 0 0 q y >.>.8 2 8 0 9 5 2 6 - a b T.E.R.W.W.rXrXrXrXR.rXiXW.",
"R.rXrXR.rXrXrXrXiXrXrXiXrXiXW.R.eXj 6 4 4 0 o.q 2 2 5 8 5 4 2 ; ; k v T.W.rXW.W.iXrXrXiXrXiXrXR.iXiX",
"R.W.W.iXW.R.W.iXR.W.W.iXiXW.W.R.rXyXE.I.s 6 2 2 2 2 2 2 6 f c v v R.W.iXW.W.W.iXR.W.W.yXiXW.W.W.W.iX",
"T.W.W.W.iXW.iXiXW.W.R.W.yXR.R.R.rXrXE.rXrXE.rXrXyXiXrXrXiXW.W.W.T.W.W.W.iXW.iXiXW.W.W.W.yXR.R.R.W.W.",
"W.W.W.W.iXW.iXW.R.rXrXW.R.W.W.T.rXrXrXrXE.rXR.rXW.yXrXiXrXrXR.R.W.W.R.W.yXW.iXW.W.W.W.W.W.W.W.T.W.W.",
"R.W.W.R.R.W.W.W.rXR.rXW.R.W.W.rXrXiXrXR.R.rXR.rXR.rXR.rXR.R.W.W.R.W.W.R.W.W.W.W.W.W.W.W.R.W.R.W.W.iX",
"W.W.W.W.W.R.W.W.W.W.W.W.W.iXrXrXR.R.rXrXR.rXrXT.rXR.rXrXW.W.iXW.W.W.W.W.W.R.W.W.W.W.R.W.W.iXW.W.R.R.",
"W.iXW.W.R.W.W.W.W.R.W.R.rXrXiXrXiXrXrXrXrXrXR.rXrXR.rXT.W.W.W.iXW.iXW.W.R.W.W.W.W.R.W.R.W.W.yXtXiXW.",
"W.W.W.W.W.W.R.W.R.W.rXW.W.W.W.W.rXT.rXR.rXiXrXrXR.rXrXR.W.W.W.W.W.W.W.W.W.W.R.W.R.W.W.W.W.R.W.W.W.R.",
"W.W.R.W.iXW.R.W.W.yXW.W.R.rXT.W.R.T.rXR.rXyXrXR.iXR.rXrXW.W.W.W.W.W.T.W.iXW.R.W.W.iXW.W.R.W.R.W.W.R.",
"R.R.W.R.yXiXW.iXiXW.W.R.W.W.W.W.W.W.W.W.yXW.W.W.W.W.iXiXW.W.W.T.W.R.W.R.yXiXW.iXiXW.W.R.W.W.W.W.W.W.",
"W.W.T.W.W.iXW.iXW.W.W.W.W.iXiXW.W.W.iXW.W.W.W.R.W.R.W.iXW.iXW.T.W.W.T.W.W.yXW.iXW.W.W.W.W.iXiXW.W.W."
};
