/* XPM */
static char *b318d9251e5b41dc9bd573a4e9325006Jx4PdzfRG4PaVK9e[] = {
/* columns rows colors chars-per-pixel */
"50 50 195 2 ",
"   c #4E361B",
".  c #4B391D",
"X  c #51371A",
"o  c #533A1C",
"O  c #4B3F21",
"+  c #563E20",
"@  c #4F4323",
"#  c #474C25",
"$  c #4C4C25",
"%  c #464120",
"&  c #544223",
"*  c #5C4323",
"=  c #5B4D27",
"-  c #5A4D27",
";  c #4D5329",
":  c #4B5127",
">  c #52542A",
",  c #5D5129",
"<  c #535A2D",
"1  c #55582B",
"2  c #565A30",
"3  c #644726",
"4  c #654B26",
"5  c #654B29",
"6  c #6C4D2A",
"7  c #64532B",
"8  c #6E522E",
"9  c #655C2F",
"0  c #73532D",
"q  c #79552E",
"w  c #715E2F",
"e  c #6E5430",
"r  c #755532",
"t  c #755C33",
"y  c #7C5B34",
"u  c #7D5E39",
"i  c #566230",
"p  c #5A6532",
"a  c #5C6934",
"s  c #5E6A39",
"d  c #636333",
"f  c #696534",
"g  c #606D36",
"h  c #6C6C35",
"j  c #616E3B",
"k  c #746435",
"l  c #7A6237",
"z  c #7E633B",
"x  c #6B7037",
"c  c #66733A",
"v  c #6A753A",
"b  c #6C7B3D",
"n  c #75733A",
"m  c #73793C",
"M  c #787B3D",
"N  c #6D7B42",
"B  c #697740",
"V  c #727D43",
"C  c #6E6765",
"Z  c #7D766D",
"A  c #736A67",
"S  c #815E35",
"D  c #815F38",
"F  c #816237",
"G  c #84633C",
"H  c #8A653C",
"J  c #8A693E",
"K  c #84683B",
"L  c #906738",
"P  c #856641",
"I  c #8C6A42",
"U  c #886E4B",
"Y  c #936D43",
"T  c #8E714C",
"R  c #9A7246",
"E  c #9C7A44",
"W  c #9C764B",
"Q  c #9F7A4D",
"!  c #937241",
"~  c #9D7D54",
"^  c #9D7F58",
"/  c #A2774A",
"(  c #A47A4D",
")  c #A27E53",
"_  c #AA7F51",
"`  c #867C73",
"'  c #897E74",
"]  c #70803F",
"[  c #738441",
"{  c #798542",
"}  c #7A8B45",
"|  c #7B894A",
" . c #7A8846",
".. c #7E9047",
"X. c #828A49",
"o. c #809248",
"O. c #8A9C54",
"+. c #849450",
"@. c #A6854D",
"#. c #AD854B",
"$. c #AB8A4F",
"%. c #A68146",
"&. c #B58B4E",
"*. c #A58254",
"=. c #AC8353",
"-. c #AE8D51",
";. c #AD8A5C",
":. c #A9855A",
">. c #B08455",
",. c #B78D52",
"<. c #BB8E50",
"1. c #B48B59",
"2. c #B49254",
"3. c #BC9355",
"4. c #B69659",
"5. c #B99B5E",
"6. c #8EA056",
"7. c #9E8562",
"8. c #8B8176",
"9. c #8F8478",
"0. c #91867A",
"q. c #968A7D",
"w. c #9A8E7F",
"e. c #A58963",
"r. c #AD8C63",
"t. c #A68B68",
"y. c #B38E62",
"u. c #AE936E",
"i. c #BC9E64",
"p. c #B4946C",
"a. c #BA966B",
"s. c #BC996D",
"d. c #B59364",
"f. c #AB9371",
"g. c #B59772",
"h. c #B59A74",
"j. c #B49E7D",
"k. c #B99C76",
"l. c #BEA066",
"z. c #BDA27C",
"x. c #B6A07F",
"c. c #C1975B",
"v. c #C2995E",
"b. c #C09456",
"n. c #C39E62",
"m. c #C39E71",
"M. c #C9A066",
"N. c #CCA961",
"B. c #C4A369",
"V. c #C9A66A",
"C. c #CFB06E",
"Z. c #DDBB6E",
"A. c #C8A172",
"S. c #DFBD71",
"D. c #E5C47A",
"F. c #9D8F80",
"G. c #9E9181",
"H. c #A29584",
"J. c #A69986",
"K. c #A89A87",
"L. c #AB9D8A",
"P. c #B59F80",
"I. c #A49E9B",
"U. c #AEA18C",
"Y. c #B7A383",
"T. c #BBA583",
"R. c #B2A38D",
"E. c #B9A78C",
"W. c #BFA985",
"Q. c #AFA69C",
"!. c #B5A690",
"~. c #B7A992",
"^. c #BCAC93",
"/. c #B7AA9A",
"(. c #B9AFA1",
"). c #C1AD8C",
"_. c #C0A987",
"`. c #C0AF96",
"'. c #C3B196",
"]. c #CBB696",
"[. c #C5B499",
"{. c #C9B79B",
"}. c #CCBA9C",
"|. c #D1BC9D",
" X c #C6B9A5",
".X c #CCBCA1",
"XX c #C1B4A0",
"oX c #D1BFA1",
"OX c #D5C3A4",
"+X c #D9C6A6",
"@X c #DCC8A7",
"#X c #D9C7A9",
"$X c #DDCAAA",
"%X c #D7C5A8",
"&X c #E5D2AE",
/* pixels */
"[ o...o.6.o.6.O.o.o.} } o.[ o.] ....o.o.o.} o.} o.O.} 6.} o.} o.[ o.o.o.6.o.6.O.o.o.} } ..[ o.[ ....",
"o.} } o.O.o.O.o.o.o.o.o.o.} o.o...} o.6.o.o.o.o.} } o.o.o.} o.} o.} } o.O.o.O.o.o.o.o.o...} o.o.....",
"o.o.[ o.o.} o.} o.} o.o.6.o.o.} o.o.o.6.6.o.o.6.o.o.o.} o.o.[ } o.o.] o.o.} o.} o.} o.o.6.....} ....",
"o.o.o.} o.o.} o.o.o.} o.6...6.o.} o.....O.} 6.} o.} o.o.o.o.o...o.o.o.} o.o.} o.o...} o.6.o.6...} ..",
"6.o.o.o.} o.o.[ o.[ } o.o.} } ..o.[ } o.o.o.o.o.o.o.o.6.o.} o.o.6.o.o.o.} o.o.[ o.[ } ..o.......o.[ ",
"O.o.o.} [ ..o.o.} ] o.o.} o...} o.o.o.} o.o.} [ } o.o.o.O.6.o.6.O...o.} [ o.o.o.} [ o.o.} ....} o.o.",
"} } o.o.o.} o.} o.o.] l u u u k o.o.o.o.o.o.} o.o.o.} } ..O.o.O.M l y y u k } } o...o.o...o.} ..6.o.",
"} ..o.} o.o.o.o.6.M F @.2.2.@.G f X.o.o.O.o.o.o...} o.[ o.....n k / 2.2.$.I 9 { 6...o.6.o.6.....6.6.",
"[ o.o.6.o.} o.6.} n K C.D.Z.N.E 7 m o.6.} } o.6.o.o.o.o.o.o. .h F B.D.S.N.@.3 X.} o.o.O.6.o.o.} ..6.",
"[ } o.o.6.o.6.O...n K M.m.n.,.J , m } o.o.] o.o.O.6.o.o.6.o.] h H d.B.n.2.Y 5 { o.o.} o.O.} } } ....",
"o.o.} o.O.o.O.o.} M F ( I I I 8 , m o.o.} o.} o.o.O.o.6.o.o.] n G R Y H Y e = X.} o.o.o.} ..o.[ ....",
"} o...} } ..X.X.X.n t Y G G D 6 7 X.o.]  .X. .} } |  .X.} ] X.n D H H V P 6 = V X.{ } } } o.} o.o.6.",
"o.o.o.o.o.} l k w 0 r r 0 r r 8 6 0 k t t t t t t t t t y k k w r r r r r r 8 t l t k ..o.6.o.o.....",
"o.6.o.} ....r ;.l.B.i.n.i.i.i.4.4.i.l.4.4.i.l.2.-.5.i.2.$.&.$.#.$.,.-.@.-.2.-.$.@.K w  .o.o.O.o.6...",
"o.o.} o...} 0 4.C.n.c.v.v.v.v.b.v.n.M.b.3.v.c.b.<.2.,.,.<.,.#.#.&.&.$.#.#.%.E =.@.l 7 ] o.} o.o...[ ",
"} o.[ o.6...0 ( 1.y.m.m.s.a.m.a.y.=.1.a.a.a.s.s.a.p.a.a.a.s.d.y.a.a.y.y.s.p.:.) ( t 7 o.} o.[ o.} [ ",
"} } o.} O.6.0 / ) p..X^.'.}.}.].P.p.k.}.].].}.}.|.oXoX|.}.|.|.}..X|.}.'.`..X{.r.R r =  .o.o.o.o...o.",
"} o.] o.o.O.6 Y Y f. XQ.[.@X@X%XoX}.}.%X%X%XOXOXOX+X%X+XoX+X@X+XOXOX@XOX(.I.^.^ S 6 ,  .o.6.6.o.....",
"o.o.} o.o.} 3 0 q 7..X X{.~.(.OX[.H.H.!.~.^.'.~.H.G.L.L.L.{.oX^.L.G.L.{..XJ.U y 6 3 - } } o.O.6...6.",
"o.o.o.} } o.3 J Y W x.$XOXH.` 8.F.H.H.' A 0.^.E.` F.L.G.H.H.0.q.0.C C L.#X'.e.Y G 6 = } o.} o.O.} 6.",
"o.o.6.o.o.} 0 / _ Y ) }.$X^.H.G.!.{.{.R.0.L.OXOXR.'.'.'.[.!.G.L.L.F.F.^.@X$X}.r./ S - } o.} } } } o.",
"6.} } o.o.o.0 >.1.Q r.].OX{.{.{.[.[.{.'..X{.[.}.oX@XoX'.'.{.{.oXOX.X[.{.oX+X].;./ u , O.o.o.o.} ..o.",
"o.o.o.}  .o.0 L R t.[.%X.XR.E.`.!.F.q.q.~.!.q.0.^.[.L.F.w.L.oX[.}.'.!.'.oX).) I P e , O.6.o.6.o.....",
"o.} [ } o.o.3 0 y t.$X$XoXK.0.H.L.F.` Z 8.w.8.Z 0.K.' ' 0.H.`.~.!.H.F.~.OXj.q q q 5 , X.O.6.o.o.} o.",
"} o.o.o.o.o.3 S G e.oX#XOX'.~.^.{.].~.!.L.!.^.U.L.^.L.^.`.'.{.{.[.^.^..X#XT.H G D 5 - ..............",
" .o.o.6.o.} 0 ( _ p.}.$XoX].].`.!.L.'..XoX{.'.XXoX.X{.`.`.{.{.{.`.^.].OX#X}.k.=.W t - ..} [ ....o.o.",
"o.o.6.O.o.o.q #.=.g.%X$X.XL.0.8.` ` G.^.^.H.' F.J.K.K.` ' R.L.G.H.H.L.^.#X$X+Xr./ u , 6...[ ....o...",
"6.o.O.o.o.} 6 Y R g.$X$X@XL.' 0.H.H.K.{.{.L.F.0.q.H.L.' ' !.R.F.L.R.U.'.+XOXY.T D 8 , 6.......6.o.o.",
"O.o.} o.[ o.3 y I e.].OX.X{.^.^..X}.{.oX].^.!.!.~.^.^.~.[..XoX[.}.OX}..XoXY.P 0 r 5 , X...} ..o.6...",
"o.o.o.} o.o.3 H Y ~ k.[.Q..X&X%X'..X+X~.U.U.L.!..X[.!.'.%X+X+X$X$X$XOX/.(.Y.G S H 6 , [ ........6...",
"o.} o.o.o.[ 0 _ >.*.h.^.Q.^.|.'.R.^.{.L.H.w.0.w.R.R.G.R.`.T.g._.OX}.j.H.Q.}.k.1.) u - o.o.........} ",
"[ } o.O.o.X.0 / Q e.E.Y.T.j.j.Y.T.j.P.T.z._._._.P.P.T.).j.~ L ~ j.f.) ;._.E.j.:.J 8 - { o.[ ........",
"[ o.o.o.6.o.6 u F u P P H y u G H u F I I I I I D z P Y K l F u r r F P P D u H G 6 & [ o.[ o.[ } ..",
"o.} } o.O.o.* * & + o o o X o o o o o + . + . + o o o + o + * + X X + + o o o + + + $ } o.} o.o.....",
"o.o.[ ..o.} v h x #   X     o o . # < < < ; ; 2 ; ; ; # ; > ; %   o o   X o . # 2 < s } 6.o.o.} ....",
"o.o.o.} o.o.} o.o.g 3 0 3 3 6 3 % p ..b V c [ c b c c b c ]  .> = 6 5 3 4 3 + p } .. .[ 6.o.6.o...o.",
"6.o.o.o.} o.o.[ o.1 t H y y S 0 % : s a i i i i i p i j i p c $ r G u t S 0 & : c a b } ..} } ..o.[ ",
"O.o.o.} [ o.o.o.} 1 y Y u y D r @ ; c i p a i < i p a i s B c > e I H y S y & < c g ] } } ..........",
"} } o...o.} o.} o.d t Y r q D r @ < c a p p i p i a i i i c c > e H y 0 y r & < ] b [ ......} ..6...",
"} o.o.} o.o.o.o.O.i q S 6 0 D r @ p b a c a a a a i a < a g c ; 6 y 0 0 S y & 2 [ ] ..6.o.6.....O.6.",
"[ o.o.6.o.} o.6.} d q K 0 r F r & 2 v N a a g b g s g g a c v ; 8 G t 0 u r * d b } ..O.6.......o.6.",
"[ } o.o.6.o.6.O...d q u 6 0 y 0 * 1 c b v a c c [ [ c v [ ] ] ; 8 S 0 0 u 8 * d [ ......O.} } } o.o.",
"o.o.} o.O.o.O.o. .x w 4 * 7 8 4 - a [ [ b ] b ] [  .] | b [ ] i 7 4 * 7 0 4 7 x [ ............[ ..o.",
"} o...} } o.o.o...] m h d 9 9 h b +...[ ] } ] } [  .[ } [ [ ..] x x d 9 9 h b ....} o...} ..} ....6.",
"o.o.o.o...} o.} o.o.} o.o.6.o.o.} } ..+.......[ ..} ........6...o.o.o.o...................6...+...} ",
"o.6.o.} } o.o.o.} } o.} o.o.O.o.6.............+...} ..[ +.....6.o.6.o.} } ........} ..} ....6...6...",
"o.o.} ..o.} } } } ..o.} o.} o.o...[ ..} ..6.....} ............o.o.o.} ......} } } ........} ......[ ",
"} o.[ o.6.o.} o.o.O.o.o.} o.[ o...[ ..} ..6...} 6...............} o.] o.6...} ....6.....} ..} ....] ",
"} } ....O.6...6.6.....} ....o.o.....o.o.o.o.........6.6...} ..[ } } o...O.6.o.6.O.o.o.} o.o.o.o.} o.",
"} o.[ o...6...6.....o.....6.6.o.o...6.o.o.o...[ ......6...6...[ } o.] o.o.O.o.6.o.o.o.} o.6.6.o.o.o."
};
