/* XPM */
static char *_41e5508a81b4bb3c6f02baf695456f14xxnYgjwgETArNAC[] = {
/* columns rows colors chars-per-pixel */
"50 50 5 1 ",
"  c #738441",
". c #7A8B45",
"X c #809248",
"o c #8A9C54",
"O c #8EA056",
/* pixels */
" XXXOXOoXX..X X .XXXX.X.Xo.O.X.X XXXOXOoXX..X X .X",
"X..XoXoXXXXXX.XXX.XOXXXX..XXX.X.X..XoXoXXXXXX.XXX.",
"XX XX.X.X.XXOXX.XXXoOXXOXXX.XX .XX XX.X.X.XXOXX.XX",
"XXX.XX.XXX.XoXOX.XXXo.O.X.XXXXXXXXX.XX.XXX.XoXOX.X",
"OXXX.XX X .XX..XX .XXXXXXXXOX.XXOXXX.XX X .XX..XX ",
"oXX. XXX. XX.XX.XXX.XX. .XXXoOXOoXX. XXX. XX.XX.XX",
"..XXX.X.XXXXXX.XOXXXXX.XXX..XoXo..XXX.X.XXXXXX.XOX",
".XX.XXXXoXXOXOX.oOXXOXXXX.X XXX..XX.XXXXoXXOXOX.oO",
" XXOX.XO.XXoOXX.XoXO..XOXXXXXX.X XXOX.XO.XXoOXX.Xo",
" .XXOXOoXX.Xo...XX.XX XXoOXXOXXX .XXOXOoXX.Xo...XX",
"XX.XoXoX.XXX.XX XXXX.X.XXoXOXX .XX.XoXoX.XXX.XX XX",
".XX..XXXX.X..X.XXOX..X.X.X.X..XX.XX..XXXX.X..X.XXO",
"XXXXX.X.XX.XXOXX..XX.XX X.XXXXoXXXXXX.X.XX.XXOXX..",
"XOX..XXX..X.XXoXOXXXXX.XX.X XX.OXOX..XXX..X.XXoXOX",
"XX.XX....XX.X.XXX X.XOXX.XX.XX.XXX.XX....XX.X.XXX ",
".X XOX.XXoXX.X X. X.XoX.O.XX.XXX.X XOX.XXoXX.X X. ",
"..X.oOXOoXX.XXXX.XXXXX.XXXoOX.X ..X.oOXOoXX.XXXX.X",
".X XXoXOXXX.XOOXXXOXXXX X.XoXOX .X XXoXOXXX.XOOXXX",
"XX.XX.XXX. X.XoOXOX .X. .XXXo..XXX.XX.XXX. X.XoOXO",
"XXX..XX XX .X.Xo.O. X.XX..XXXXX.XXX..XX XX .X.Xo.O",
"XXOXX..X.X.XX....XX.. X.XX .X.XoXXOXX..X.X.XX....X",
"O..XXXX.X.oOXXX.XXXX..XXX. XXXXXO..XXXX.X.oOXXX.XX",
"XXX..X. .XXoOXOXX.X.XXXOXXX.X.XXXXX..X. .XXoOXOXX.",
"X. .XX. XXXXoOXX.XXX.XXXOXXXX.X.X. .XX. XXXXoOXX.X",
".XXXXXX..X.X.XX.XXoXXO.XoXO..X. .XXXXXX..X.X.XX.XX",
".XXOX.X.XX.X. XXXXXO.o.XX.XXXoXX.XXOX.X.XX.X. XXXX",
"XXOoXXXXOXXOX .XX.XXXXX.X.X.XXoOXXOoXXXXOXXOX .XX.",
"OXoXX..XXOXOXXXoXXX.X..XXX. XXXoOXoXX..XXOXOXXXoXX",
"oX.X XX.X.XXX.XXOXXX..XX XX X.X.oX.X XX.X.XXX.XXOX",
"XXX.XXX.XXX .XXXoXOXX .XXXX.XXXXXXX.XXX.XXX .XXXoX",
"X.XXX XXXOXXX.XXX.XX. XXOXXXXX.XX.XXX XXXOXXX.XXX.",
" .XoXXXOoXX.X X.XX.XXXX.oOXXOXX. .XoXXXOoXX.X X.XX",
" XXXOXOoXX..X X .XXXX.X.Xo.O.X.X XXXOXOoXX..X X .X",
"X..XoXoXXXXXX.XXX.XOXXXX..XXX.X.X..XoXoXXXXXX.XXX.",
"XX XX.X.X.XXOXX.XXXoOXXOXXX.XX .XX XX.X.X.XXOXX.XX",
"XXX.XX.XXX.XoXOX.XXXo.O.X.XXXXXXXXX.XX.XXX.XoXOX.X",
"OXXX.XX X .XX..XX .XXXXXXXXOX.XXOXXX.XX X .XX..XX ",
"oXX. XXX. XX.XX.XXX.XX. .XXXoOXOoXX. XXX. XX.XX.XX",
"..XXX.X.XXXXXX.XOXXXXX.XXX..XoXo..XXX.X.XXXXXX.XOX",
".XX.XXXXoXXOXOX.oOXXOXXXX.X XXX..XX.XXXXoXXOXOX.oO",
" XXOX.XO.XXoOXX.XoXO..XOXXXXXX.X XXOX.XO.XXoOXX.Xo",
" .XXOXOoXX.Xo...XX.XX XXoOXXOXXX .XXOXOoXX.Xo...XX",
"XX.XoXoX.XXX.XX XXXX.X.XXoXOXX .XX.XoXoX.XXX.XX XX",
".XX..XXXX.X..X.XXOX..X.X.X.X..XX.XX..XXXX.X..X.XXO",
"XXXXX.X.XX.XXOXX..XX.XX X.XXXXoXXXXXX.X.XX.XXOXX..",
"XOX..XXX..X.XXoXOXXXXX.XX.X XX.OXOX..XXX..X.XXoXOX",
"XX.XX....XX.X.XXX X.XOXX.XX.XX.XXX.XX....XX.X.XXX ",
".X XOX.XXoXX.X X. X.XoX.O.XX.XXX.X XOX.XXoXX.X X. ",
"..X.oOXOoXX.XXXX.XXXXX.XXXoOX.X ..X.oOXOoXX.XXXX.X",
".X XXoXOXXX.XOOXXXOXXXX X.XoXOX .X XXoXOXXX.XOOXXX"
};
