/* XPM */
static char *_cd4bb80d1fc4e09cd123e6c83aba60ejR1IEwSbbC5L1McI[] = {
/* columns rows colors chars-per-pixel */
"50 50 59 1 ",
"  c #070007",
". c #0E0707",
"X c #1F0206",
"o c #1E0C08",
"O c #1D131E",
"+ c #241213",
"@ c #241512",
"# c #232017",
"$ c #3E2613",
"% c #281820",
"& c #2E2533",
"* c #352E36",
"= c #45090F",
"- c #641318",
"; c #4F2313",
": c #62351C",
"> c #544C2E",
", c #7E4E20",
"< c #664332",
"1 c #744B30",
"2 c #3D3748",
"3 c #463E47",
"4 c #4F464F",
"5 c #4D4A5D",
"6 c #5C575D",
"7 c #6D6262",
"8 c #726B7E",
"9 c #831E20",
"0 c #9E3E37",
"q c #A12929",
"w c #8C4322",
"e c #DC6F35",
"r c #FF7D2C",
"t c #996B4A",
"y c #877B75",
"u c #867E7F",
"i c #738441",
"p c #7A8B45",
"a c #809248",
"s c #8A9C54",
"d c #8EA056",
"f c #EB9B56",
"g c #D28560",
"h c #EAA377",
"j c #FFC95A",
"k c #FFFF61",
"l c #FFE177",
"z c #8D8789",
"x c #B19998",
"c c #A8B3B8",
"v c #C4B59F",
"b c #FFFF92",
"n c #FDD5B7",
"m c #FFFFAC",
"M c #E5E6C7",
"N c #FFFFDF",
"B c #FBECE6",
"V c #F2F8F9",
"C c white",
/* pixels */
"iaaadadsaappaiaipaaaapXXXXXdpaXXXaaadadsaappaiaipa",
"appasasaaaaaapaXXXXXXX==--=XXX==Xppasasaaaaaapaaap",
"aaiaapapapaadaaX=-=X=----q99-==Xaaiaapapapaadaapaa",
"aaapaapaaapasadaX==-9==-99q999-=XXXXXapaaapasadapa",
"daaapaaiaipXXXXX=-99==9qqq9qq99q---=Xaaiaipaappaai",
"saapiaaapiaX=-99999qqq9qqqqqq9qq9X=Xiaaapiaapaapaa",
"ppaaapapaaaaX==-9=qq-9q9-9q9qq9qq=XXapapaaaaaapada",
"paapaaaasaadaXXX=qq9=qq-9qqq9qq9=--=Xaaasaadadapsd",
"iaadapadpaasdX=-9q-=qq9-qqqqq9q9-=--=Xadpaasdaapas",
"ipaadadsaapaX=-99-==q9-=q9-qqq=-9-XXXadsaapaspppaa",
"aapasasapaaapaX=-=X9q-==9=X9-q9=--Xasasapaaapaaiaa",
"paappaaaapap%%pXXX=q-=XX-X=-=-q9X=-X%%aaapappapaad",
"aaaaapapaapa%nXX=X99=XnX=X-=XX=q=X=Xn%apaapaadaapp",
"adappaaappapa%X0XXq-XnnnXn=XnX=-9XXn%aaappapaasada",
"aapaappppaapa%nngX9=XBnnnnXnBBX=qgnn%ppppaapapaaai",
"paiadapaasaapa%ngX-X00hnnnnh00gX9hn%dapaasaapaiapi",
"ppapsdadsaapaa%nnX=,%%,hnhg,%%,X-nn%sdadsaapaaaapa",
"paiaasadaaapadd%ng=V%>VnnhgV>%Vh=n%aasadaaapaddaaa",
"aapaapaaapiapasd%=Xn##VnnhnV##nhX%paapaaapiapasdad",
"aaappaaiaaipapooooXnnnnnBnhnnnngOooopaaiaaipapaspd",
"aadaappapapaooCjeoXhnnnnggnnnnh0oCjjoopapapaappppa",
"dppaaaapapsoejCkkj&00hnnnnnnh00ojNCkjwopapsdaaapaa",
"aaappapipaaojNCCkko&&00000000&&okNCkkjoipaasdadaap",
"apipaapiaaoejNCCCjoMuOOOOOOOOucojCCkkj;oaaaasdaapa",
"paaaaaappaoejkNNCeoMCcuuuuuucvuoeCNkke;opapapaapaa",
"paadapapaao;ejkkkeocvCMMvxvMvuuoekkeew;oaapapiaaaa",
"aadsaaaadaoooeeeewouuxvCMuxxuuuoweewwooodaadaipaap",
"dasaappaadokoooooouuuuucMuuuuuu8ooooooeoadadaaasaa",
"sapaiaapapoCjeoo&8uuuuuuv8uuuu85&&ooeNkoapaaapaada",
"aaapaaapaaoCoooaO8uuuuuux8uuuu85&Oaoookoaaaipaaasa",
"apaaaiaaadooekoa+++uuuuuu8uu885+++aokeooadaaapaaap",
"ipasaaadsaoejjoo+:$++uuuu8uu8++$:+oojjeosaapaiapaa",
"iaaadadsaaoeCNjo+$:1$++OOOO++$1:$+ojCkeoaappaiaipa",
"appasasaaaokCkNjo+$$1ttO88Ott1$$+ojNCkkoaaaaapaaap",
"aaiaapapaporkC;o j++$:$O22O$:$++j o;Ckroapaadaapaa",
"aaapaapaaaoerkko flf+++OOOO+++flf okkreoaapasadapa",
"daaapaaiaiporjerofblfj.@@@@.jflbforejroiaipaappaai",
"saapiaaapiaaoooo<fCmfj......jfmCf<ooooaapiaapaapaa",
"ppaaapapaaaaaap.@mCff<.z3y*.<ffCm@.aapapaaaaaapada",
"paapaaaasaadada.......674767.......paaaasaadadapsd",
"iaadapadpaasdaa.@mj@..z3y*z3..@jf@.dapadpaasdaapas",
"ipaadadsaapaspp.fCf<.        .<mCj.adadsaapaspppaa",
"aapasasapaaapaaOOOO@Oapaasada.@OOOOasasapaaapaaiaa",
"paappaaaapappaO5cuuO&OpapapaO5Ocuu5Opaaaapappapaad",
"aaaaapapaapaaO58&&u8OOaiapaaOO8M&&uOapapaapaadaapp",
"adappaaappapaO8&Cc&85OpaapaiO58&Cu&5Oaaappapaasada",
"aapaappppaapaO&uMcu5&OaapaapO&&uMcu&Oppppaapapaaai",
"paiadapaasaapO58uu5&&OapdpaapO&5uu85Oapaasaapaiapi",
"ppapsdadsaapaaO&85&OOapaaasdapO&58&Osdadsaapaaaapa",
"paiaasadaaapaddO&&OaaaaiapasadaO&&Oaasadaaapaddaaa"
};
