/* XPM */
static char *a8bc3af80d254367c157df2ee3b16afd3PZeo1Bn7leuqeOj[] = {
/* columns rows colors chars-per-pixel */
"50 50 155 2 ",
"   c #41482E",
".  c #4B532F",
"X  c #4E592E",
"o  c #525D2F",
"O  c #464D37",
"+  c #494E3D",
"@  c #4D5534",
"#  c #4F5834",
"$  c #4D533B",
"%  c #535D34",
"&  c #525B3C",
"*  c #566133",
"=  c #596533",
"-  c #5D6A35",
";  c #55603B",
":  c #5A643C",
">  c #5E6A39",
",  c #616E36",
"<  c #616E39",
"1  c #65733B",
"2  c #69773D",
"3  c #6C7B3E",
"4  c #4B4F40",
"5  c #4E5343",
"6  c #4F5942",
"7  c #515645",
"8  c #545A45",
"9  c #595E45",
"0  c #535748",
"q  c #555A49",
"w  c #595E4C",
"e  c #5D6445",
"r  c #5F6A43",
"t  c #5C614E",
"y  c #5E6351",
"u  c #616D40",
"i  c #646D4B",
"p  c #657143",
"a  c #697545",
"s  c #6D7B43",
"d  c #67704D",
"f  c #69734D",
"g  c #707F40",
"h  c #707B4E",
"j  c #616653",
"k  c #646A56",
"l  c #686E56",
"z  c #676C58",
"x  c #696E5A",
"c  c #6A7355",
"v  c #6F7A52",
"b  c #6C725D",
"n  c #737C54",
"m  c #72775E",
"M  c #727B5C",
"N  c #6F7560",
"B  c #717662",
"V  c #747A64",
"C  c #787F67",
"Z  c #777D68",
"A  c #797E6A",
"S  c #738441",
"D  c #7A8B45",
"F  c #75844B",
"G  c #7D8D4A",
"H  c #7E9047",
"J  c #7F9149",
"K  c #778254",
"L  c #788453",
"P  c #7D8A52",
"I  c #7B865C",
"U  c #7F8B5A",
"Y  c #7A8364",
"T  c #7D8864",
"R  c #7C826C",
"E  c #7E8471",
"W  c #809248",
"Q  c #808B5F",
"!  c #839354",
"~  c #879854",
"^  c #8A9C54",
"/  c #869559",
"(  c #8A985E",
")  c #8EA056",
"_  c #808B64",
"`  c #81856E",
"'  c #828B6E",
"]  c #869262",
"[  c #899563",
"{  c #818672",
"}  c #848A75",
"|  c #878C79",
" . c #898E7B",
".. c #879273",
"X. c #8B917D",
"o. c #8E9381",
"O. c #919684",
"+. c #939885",
"@. c #989F87",
"#. c #929788",
"$. c #969A89",
"%. c #9A9E8E",
"&. c #9B9F91",
"*. c #9BA08F",
"=. c #9DA293",
"-. c #A1A596",
";. c #A3A799",
":. c #A2A799",
">. c #A4A899",
",. c #A5A89B",
"<. c #A6AA9B",
"1. c #A5A99C",
"2. c #A7AB9D",
"3. c #A7AB9E",
"4. c #A5A99C",
"5. c #A8AA9E",
"6. c #A8AE9F",
"7. c #A8AC9E",
"8. c #A9ADA1",
"9. c #A9ACA0",
"0. c #ABAEA2",
"q. c #ABAEA2",
"w. c #AEB2A6",
"e. c #AFB2A8",
"r. c #AFB2A9",
"t. c #B0B2A7",
"y. c #B0B3A9",
"u. c #B0B3AA",
"i. c #B1B4A9",
"p. c #B3B5AB",
"a. c #B4B7AC",
"s. c #B5B7AE",
"d. c #B2B5AB",
"f. c #B5B8AE",
"g. c #B6B8AF",
"h. c #B8BAAF",
"j. c #B5B8B0",
"k. c #B7BAB1",
"l. c #B7BAB1",
"z. c #B9BBB2",
"x. c #BBBEB6",
"c. c #BDBFB6",
"v. c #BDBFB7",
"b. c #BABCB3",
"n. c #BEBFBA",
"m. c #BEC0B7",
"M. c #BDC0B8",
"N. c #BFC3BB",
"B. c #BFC2BB",
"V. c #C0C2BB",
"C. c #C1C2BB",
"Z. c #C3C5BE",
"A. c #C1C3BB",
"S. c #C4C6C0",
"D. c #C5C7C0",
/* pixels */
"S W W W ) W ) ^ W W D D W S W S D W W W W D W D W ^ D ) D W D W S W W W ^ W ) ^ W W D D W S W S D W ",
"W D D W ^ W ^ W W W W W W D W W W D W ) W W W W D D W W W D W D W D D W ^ W ^ W W W W W W D W W W D ",
"W W S W W D W D W D W W ) W W D W W W ^ ) W W ) W W W D W W S D W W S W W D W D W D W W ) W W D W W ",
"W W W D W W D W W W D W ^ W ) W D W W J ^ D ) D W D W W W W W W W W W D W W D W W W D W ^ W ) W D W ",
") W W W D W W S W S D W W D D J W S D J G L f t e r s ! D D W W ) W W W D W W S W S D W W D D W W S ",
"^ W W D S J W W D S J W D W W D W W ! v c j y x Z c y 9 e n D ) ^ W W D S W W W D S W W D W W D W W ",
"D D W W W D W D W W W W W W D J ) J I V b B o.,.r.$.R b q 8 a ^ D D W W W D W D W W W W W W D W ) W ",
"D W W D W W W W ^ W W ) W ) J D ) U b X.%.1.l.C.N.6.O.E k 5 8 a D W W D W W W W ^ W W ) W ) W D ^ ) ",
"S J W ) W D W ) D W W ^ ) W W D ! c R ;.a.m.x.B.a.=.$.X.b q $ 8 u D D ^ W D W ) D W W ^ ) W W D W ^ ",
"S D W W ) W ) ^ W W D W ^ D D I i z X.2.0.,.=.#.X.E } { b w 4 5 7 e u i / W ) ^ W W D W ^ D D D W W ",
"W W D W ^ W ^ W D W W W G [ f O + N X.*.$.| R N z y k b j 0 w x x k q 7 f D ^ W D W W W D W W S W W ",
"D W W D D W W W W D ! ( _ i k t 0 z R +.o.R E E B w 7 7 7 w B } ..V k w q < D W W D W D D W D W W ) ",
"W W W W W D W D W W [ +.6.=.+.| B z B o. .| =.>.$.V q 5 5 k E X. .B z j w   , 3 H H D J W ) W J D D ",
"W ) W D D W W W D G +.l.Z.B.a.>.%.E B R o.=.=.=.=.} c 8 5 b } o.{ x j y w $ o , 3 D W D W W ^ W ) W ",
"W W D W W D D D D ] :.n.Z.B.l.1.=.R z Z =.8.=.=.=. .C 0 0 B X.} N j j w 7 4 . * = 1 D D W D W W W S ",
"D W S W ) W D W ! c #.9.i.;.$.%. .x y  .l.k.r.r.8.#.R q 0 R } B j z x w 0 5 $ % - > - S D W S W D S ",
"D D W D ^ ) J / d 5 m O.O.C b R B w j %.b.l.b.g.5.O.B y q b C k k b x q 5 7 5 + $ @ o - D J J W D W ",
"D W S W J ^ G i 9 y b { C k j B N w x $.0.u.z.q.=. .N j w k b j k B j 5 7 7 0 7 7 7 @ = , ^ ) J W W ",
"W W D W J D L c | o.} R V R { E R j B X.$.-.9.$.X.C z y q w y k k k 0 0 j 0 q j y 8 O * = S ^ ) W ) ",
"W W W D D W ' *.q.-.X.{ } ;.1.o.} z B } {  .o.E B x y w 0 7 0 y t 0 5 j c q y x w 5 $ # - 2 W ^ D ) ",
"W W ) W W Q *.d.j.;. .o.=.s.u.+.R y z B B R E V w t q q 7 5 5 0 q 0 y b x q y z w q 0 $ - , D D D W ",
") D D W W T *.h.b.=.| $.w.s.1.E z w w w k N N k 5 w 0 7 5 5 5 7 w y N N x q j x x k t + = > W D W W ",
"W W W D G ' &.n.s.O.{ -.a.0.#.j z B N y w y k w q y y q 5 5 5 5 q j x x z q j N N z y 5 : - ) W W D ",
"W D S D / ..;.b.=.E o.e.f.&.R z o.w.j.=.N y A { V Z V x q 5 7 q q q w t y 0 k b z k y $ ; s J J D W ",
"D W W W / ..;.,.X.{ %.0.6.$.B Z e.S.N.l.=.o.>.w.9.,.+.R z 0 j C B b z t 7 0 k x j w w 7 $ < W D W W ",
"D W W ) h ' }  .Z | =.=.o.X.E $.x.A.l.e.=.%.w.b.a.e.>.E y k A } X.| R b y 5 q y y w w q $ * W W W W ",
"W W ) ^ M } { C N  .=.$.R B Z *.x.B.a.:.%.>.f.l.x.l.e.} w B X. .| | } Z w 7 5 0 q q q w 7 % D W W D ",
") W ^ W Y R j t N #.,.o.b k Z o.1.w.=. .O.a.b.x.l.0.=.{ q x X.X.X.| Z z 0 5 0 0 7 8 w w 8 * W ^ W W ",
"^ W D W n i 5 q E =.=.E q k A R } | R b R ,.z.l.q.%.E N q y B A R B z w 7 0 y y q 0 q w 8 % W W ) W ",
"W W W D P p @ t o.=.#.V 0 b Y A | b j j b O.1.0.1.X.z y w y z z c z w 0 8 0 z z q 7 0 w & - W W ^ W ",
"W D W W W 3 a l o.| Z b t R  .$.1.B w q k { O.%.o.V y w y j b B b y 0 0 0 7 z b q 5 8 ; * = W W W D ",
"S D W ^ W W D T C N j z Z $.0.a.i.{ t q x { R { A k q y y y B R V y 8 w w 0 y k q 5 & - = * W D W W ",
"S W W W ) W ) [ d 9 q N %.i.x.z.,.A y j { O.C m b z w j w y B R C j q j y q q y 0 8 @ - - - J S D W ",
"W D D W ^ W ^ W a @ q R w.m.w.w.O.V t B =.-.{ R C y q y q t B R b j t j z q 6 q q 9 * - 1 S W J W D ",
"W W S W W D W D S # 9 } w.5.&.%.} V y E i.0.O.X.| x k k 0 q b Z x k y t y 8 5 8 y ; = - D W W D W W ",
"W W W D W W D W J - 9 X.=.#.X.X.R N x o.z.l.;.%.#.R R c q 5 k N x k w q 0 8 & 9 r ; * - G W ) W D W ",
") W W W D W W S W 2 f ..O. .A ` Z k A ;.x.B.f.=.o.{ { b q 5 q k b j w 7 8 q & % = X = 3 J D D W W S ",
"^ W W D S W W W D S P R } ` x A x t | e.f.l.i.%. .R R c 7 4 0 y j j 9 7 # ; % = * = D J D W W D W W ",
"D D W W W D W D W W ! I Y b t b y j o.e.l.i.;.+.{ R V z 0 5 0 t w w & % = % = o - S J W W W D W ) W ",
"D W W D W W W W ^ W J / F j q j w B %.w.t.6.$. .B B m k 0 5 8 0 7 7 * = = = = , D J W ) W ) W D ^ ) ",
"S W W ) W D W ) D W W ^ ~ p w 8 & A $.*.%.O.X.R y x B l 8 $ 7 0 7 $ = 1 = % = W D G W ^ ) W W D W ^ ",
"S D W W ) W ) ^ W W D W ^ S a < % r m ` { { } B q j x j 0 $ 8 8 & o * = 1 - s ~ J J D W ^ D D D W W ",
"W W D W ^ W ^ W D W W W D W G S D a : d C ' A k 7 w w w $ # # % o , 1 s F 3 W W D W W W D W W S W W ",
"D W W D D W W W W D W D D W D J W ^ D F v c k w 5 5 6 & o * = = - S W D D J W W W D W D D W D W W ) ",
"W W W W W D W D W W D W W ^ W W D D W W S > & & & & ; - 1 1 3 3 S W W W W D W D W W D W W ) W W D D ",
"W ) W D D W W W D D W D W W ^ W ) J W W J J 3 3 1 , 3 S W J D ^ W ) W D D W W W D D W D W W ^ W ) W ",
"W W D W W D D D D W W D W D W W W S W D J ) W W D W J D W W D W W W D W W D D D D W W D W D W W W S ",
"D W S W ) W D W W ^ W W D W S W D S W D W ^ W D ^ D W J D W W W D W S W ) W D W W ^ W J D W S W D S ",
"D D W D ^ ) W ) ^ W W D W W W W D W W W W W D W W W ^ ) W D W S D D W D ^ ) W ) ^ W W D W W W W D W ",
"D W S W W ^ W ) W W W D W ) ) W W W ) W W W W S W D W ^ W ) W S D W S W W ^ W ) W W W D W ) ) W W W "
};
